<?xml version="1.0" encoding="UTF-8" standalone="no"?>
<!-- Generator: Adobe Illustrator 19.0.0, SVG Export Plug-In . SVG Version: 6.00 Build 0)  -->

<svg
   xmlns:dc="http://purl.org/dc/elements/1.1/"
   xmlns:cc="http://creativecommons.org/ns#"
   xmlns:rdf="http://www.w3.org/1999/02/22-rdf-syntax-ns#"
   xmlns:svg="http://www.w3.org/2000/svg"
   xmlns="http://www.w3.org/2000/svg"
   xmlns:sodipodi="http://sodipodi.sourceforge.net/DTD/sodipodi-0.dtd"
   xmlns:inkscape="http://www.inkscape.org/namespaces/inkscape"
   version="1.1"
   id="Layer_1"
   x="0px"
   y="0px"
   viewBox="0 0 462.2 241.41999"
   xml:space="preserve"
   sodipodi:docname="car_inkscape.svg"
   width="462.20001"
   height="241.42"
   inkscape:version="0.92.1 r15371"><metadata
     id="metadata73"><rdf:RDF><cc:Work
         rdf:about=""><dc:format>image/svg+xml</dc:format><dc:type
           rdf:resource="http://purl.org/dc/dcmitype/StillImage" /><dc:title></dc:title></cc:Work></rdf:RDF></metadata><defs
     id="defs71" /><sodipodi:namedview
     pagecolor="#ffffff"
     bordercolor="#666666"
     borderopacity="1"
     objecttolerance="10"
     gridtolerance="10"
     guidetolerance="10"
     inkscape:pageopacity="0"
     inkscape:pageshadow="2"
     inkscape:window-width="1920"
     inkscape:window-height="1018"
     id="namedview69"
     showgrid="false"
     fit-margin-top="0"
     fit-margin-left="0"
     fit-margin-right="0"
     fit-margin-bottom="0"
     inkscape:zoom="4.0848117"
     inkscape:cx="391.33118"
     inkscape:cy="87.940526"
     inkscape:window-x="-8"
     inkscape:window-y="-8"
     inkscape:window-maximized="1"
     inkscape:current-layer="g36" /><g
     id="g36"
     transform="translate(0,-110.39)"><path
       id="frontWheel"
       d="m 357.68693,266.30512 c -15.85,0 -29.68032,8.61992 -37.07032,21.41992 -3.62,6.28 -5.68945,13.56984 -5.68945,21.33984 0,0.93 0.0298,1.8593 0.0898,2.7793 1.43001,22.31 19.97993,39.9707 42.66993,39.9707 22.67999,0 41.23015,-17.6607 42.66015,-39.9707 0.06,-0.92 0.0898,-1.8493 0.0898,-2.7793 0,-7.77 -2.07117,-15.05984 -5.70117,-21.33984 -7.38,-12.8 -21.20883,-21.41992 -37.04882,-21.41992 z m -1.5,4.36718 h 3 v 20.92969 c 0.3718,0.0317 0.73667,0.084 1.10156,0.13867 0.13885,0.0208 0.27825,0.0385 0.41601,0.0625 0.34559,0.0603 0.68701,0.13062 1.0254,0.21094 0.15351,0.0363 0.30509,0.0768 0.45702,0.11719 0.33599,0.0895 0.67025,0.18238 0.99805,0.29101 0.006,0.002 0.0119,0.002 0.0176,0.004 0.0629,0.0209 0.12293,0.0487 0.18555,0.0703 0.65728,0.22697 1.29455,0.49255 1.91406,0.79297 0.14576,0.0705 0.29401,0.13649 0.4375,0.21094 0.27313,0.14195 0.5382,0.29551 0.80273,0.45117 0.17427,0.10241 0.34721,0.20624 0.51758,0.31445 0.24686,0.15695 0.4902,0.3176 0.72852,0.48633 0.16811,0.11896 0.33043,0.24446 0.49414,0.36914 0.23172,0.17656 0.465,0.34951 0.6875,0.53711 l 14.80273,-14.80273 2.1211,2.12109 -14.80079,14.80078 c 0.003,0.003 0.005,0.007 0.008,0.01 0.15927,0.18913 0.30572,0.38818 0.45703,0.58398 0.16188,0.20957 0.32221,0.41982 0.47461,0.63672 0.14843,0.21107 0.2885,0.42679 0.42773,0.64453 0.12668,0.19837 0.24841,0.39985 0.36719,0.60352 0.13699,0.2345 0.27414,0.46775 0.40039,0.70898 0.11033,0.21121 0.2087,0.4284 0.31055,0.64453 0.25302,0.53566 0.48103,1.08492 0.67968,1.64844 0.0371,0.10551 0.0802,0.20804 0.11524,0.31445 0.10466,0.31623 0.19247,0.63905 0.2793,0.96289 0.0454,0.16988 0.0905,0.33987 0.13086,0.51172 0.0759,0.3219 0.14139,0.64621 0.19921,0.97461 0.0272,0.15472 0.0492,0.31073 0.0723,0.4668 0.0529,0.35673 0.10378,0.71286 0.13476,1.07617 h 20.92969 v 3 h -20.92969 c -0.031,0.36332 -0.0819,0.71944 -0.13476,1.07617 -0.0231,0.15605 -0.0451,0.31212 -0.0723,0.4668 -0.0578,0.32841 -0.12332,0.65271 -0.19921,0.97461 -0.04,0.17012 -0.086,0.33768 -0.13086,0.50586 -0.0878,0.32794 -0.17711,0.65448 -0.28321,0.97461 -0.002,0.006 -0.002,0.0119 -0.004,0.0176 -0.0209,0.0629 -0.0487,0.12293 -0.0703,0.18554 -0.21827,0.63212 -0.47346,1.24648 -0.75976,1.84375 -0.0848,0.1773 -0.16531,0.35729 -0.25586,0.53125 -0.13522,0.25932 -0.28209,0.51017 -0.42969,0.76172 -0.10727,0.18305 -0.21641,0.36421 -0.33008,0.54297 -0.15316,0.24064 -0.30828,0.47842 -0.47265,0.71094 -0.1258,0.17809 -0.25841,0.35029 -0.39063,0.52344 -0.17224,0.22546 -0.34071,0.45321 -0.52344,0.66992 l 14.80079,14.80078 -2.1211,2.12109 -14.80078,-14.80078 c -0.002,0.002 -0.005,0.004 -0.008,0.006 -0.19419,0.16358 -0.39839,0.31357 -0.59961,0.46875 -0.2019,0.15568 -0.40263,0.31209 -0.61133,0.45899 -0.21704,0.15284 -0.43996,0.29634 -0.66406,0.43945 -0.19165,0.12228 -0.38544,0.24055 -0.58203,0.35547 -0.24251,0.14193 -0.48467,0.28362 -0.73438,0.41406 -0.17267,0.0901 -0.35138,0.1695 -0.52734,0.25391 -0.56725,0.27257 -1.14919,0.51527 -1.74805,0.72656 -0.11128,0.0392 -0.21974,0.0841 -0.33203,0.12109 -0.31687,0.10459 -0.64034,0.19261 -0.96484,0.2793 -0.15789,0.0421 -0.31502,0.0853 -0.47461,0.12305 -0.32623,0.0773 -0.65536,0.14433 -0.98828,0.20312 -0.17205,0.0303 -0.34581,0.0548 -0.51953,0.0801 -0.33802,0.0492 -0.67562,0.0974 -1.01953,0.12695 -0.004,3.4e-4 -0.008,0.002 -0.0117,0.002 v 20.92773 h -3 v -20.92773 c -0.003,-2.3e-4 -0.005,-0.002 -0.008,-0.002 -0.35061,-0.03 -0.69461,-0.0785 -1.03906,-0.1289 -0.16837,-0.0246 -0.33711,-0.0469 -0.5039,-0.0762 -0.32696,-0.0576 -0.65024,-0.12371 -0.97071,-0.19921 -0.17471,-0.041 -0.34687,-0.0885 -0.51953,-0.13477 -0.31919,-0.0857 -0.63746,-0.17239 -0.94922,-0.27539 -0.1104,-0.0364 -0.21675,-0.0806 -0.32617,-0.11914 -0.6066,-0.21398 -1.19548,-0.45954 -1.76953,-0.73633 -0.16122,-0.0776 -0.32398,-0.15204 -0.48242,-0.23437 -0.25733,-0.13395 -0.50814,-0.2777 -0.75782,-0.42383 -0.19773,-0.11557 -0.39321,-0.2344 -0.58593,-0.35742 -0.22712,-0.14513 -0.45203,-0.29214 -0.67188,-0.44727 -0.19691,-0.13886 -0.38727,-0.28495 -0.57812,-0.43164 -0.20697,-0.15913 -0.4157,-0.31443 -0.61524,-0.48242 -0.004,-0.003 -0.008,-0.005 -0.0117,-0.008 l -14.79882,14.79883 -2.1211,-2.12109 14.79883,-14.79883 c -0.003,-0.003 -0.005,-0.007 -0.008,-0.01 -0.1679,-0.19948 -0.32144,-0.4103 -0.48047,-0.61719 -0.14828,-0.19299 -0.29723,-0.3848 -0.4375,-0.58399 -0.15506,-0.22 -0.30222,-0.44461 -0.44727,-0.67187 -0.12242,-0.19203 -0.24043,-0.38699 -0.35547,-0.58399 -0.1432,-0.24491 -0.28453,-0.48993 -0.41601,-0.74218 -0.0874,-0.16805 -0.16596,-0.34056 -0.24805,-0.51172 -0.26199,-0.54512 -0.49569,-1.10529 -0.70117,-1.67969 -0.0494,-0.1386 -0.10632,-0.27388 -0.15234,-0.41406 -0.10054,-0.30528 -0.18364,-0.61732 -0.26758,-0.92969 -0.0467,-0.17444 -0.0933,-0.34886 -0.13477,-0.52539 -0.0751,-0.31873 -0.13989,-0.63973 -0.19726,-0.96484 -0.0301,-0.17083 -0.055,-0.34314 -0.0801,-0.51563 -0.0497,-0.34071 -0.0972,-0.68065 -0.12695,-1.02734 -2.9e-4,-0.003 -0.002,-0.006 -0.002,-0.01 h -20.92773 v -3 h 20.92773 c 2.9e-4,-0.003 0.002,-0.006 0.002,-0.01 0.0297,-0.3467 0.0773,-0.68664 0.12695,-1.02735 0.0251,-0.1725 0.05,-0.34478 0.0801,-0.51562 0.0574,-0.32512 0.1222,-0.64611 0.19726,-0.96485 0.0404,-0.17185 0.0855,-0.34184 0.13086,-0.51172 0.0871,-0.32529 0.17614,-0.64919 0.28125,-0.96679 0.0248,-0.0752 0.0543,-0.14793 0.0801,-0.22266 0.22913,-0.66196 0.49913,-1.30419 0.80273,-1.92773 0.0659,-0.13547 0.12804,-0.27275 0.19727,-0.40625 0.14308,-0.27558 0.29609,-0.54373 0.45313,-0.81055 0.1002,-0.17043 0.20283,-0.33916 0.30859,-0.50586 0.15713,-0.24748 0.31735,-0.49156 0.48633,-0.73047 0.12075,-0.17082 0.24834,-0.33568 0.375,-0.50195 0.17588,-0.23081 0.34829,-0.46389 0.53515,-0.68555 l -14.80078,-14.80078 2.1211,-2.12109 14.80078,14.80078 c 0.21752,-0.18341 0.44551,-0.35255 0.67187,-0.52539 0.1706,-0.13024 0.34022,-0.26076 0.51563,-0.38477 0.23235,-0.16434 0.47045,-0.31951 0.71093,-0.47265 0.1802,-0.11468 0.36231,-0.22581 0.54688,-0.33399 0.2536,-0.14879 0.50802,-0.29544 0.76953,-0.43164 0.17397,-0.0905 0.35394,-0.17111 0.53125,-0.25586 0.56016,-0.26814 1.1336,-0.50833 1.72461,-0.7168 0.10881,-0.0383 0.21444,-0.0829 0.32422,-0.11914 0.31348,-0.10359 0.63408,-0.1893 0.95508,-0.27539 0.17136,-0.0459 0.34224,-0.0921 0.51562,-0.13281 0.32248,-0.076 0.64752,-0.1433 0.97656,-0.20117 0.16306,-0.0286 0.32762,-0.0521 0.49219,-0.0762 0.34507,-0.0506 0.68976,-0.0988 1.04102,-0.12891 0.004,-3.3e-4 0.008,-0.002 0.0117,-0.002 z"
       style="fill:#666666"
       inkscape:connector-curvature="0"
       inkscape:label="#path4599" /><g
       id="frontWindow"
       inkscape:label="#g4568"><path
         inkscape:connector-curvature="0"
         id="path16"
         d="m 310.137,196.72 h -95.11 v -62.17 h 40.82 c 9.89,0 19.27,5.24 24.45,13.67 z"
         style="fill:#76cdce" /><path
         inkscape:connector-curvature="0"
         id="path32"
         d="m 310.137,196.72 h -32.94 l -62.17,-62.17 h 40.82 c 9.89,0 19.27,5.24 24.45,13.67 z"
         style="fill:#96e0de" /></g><g
       id="backWindow"
       inkscape:label="#g4564"><path
         inkscape:connector-curvature="0"
         id="path14"
         d="m 200.027,134.55 v 62.17 h -69.06 v -62.04 c 1.12,-0.09 2.25,-0.13 3.38,-0.13 z"
         style="fill:#76cdce" /><polygon
         id="polygon30"
         points="192.997,196.72 130.967,134.68 200.027,134.68 200.027,196.72 "
         style="fill:#96e0de" /></g><path
       style="fill:#008db3"
       d="M 134.34766 0 C 102.68766 0 74.917578 21.149688 66.517578 51.679688 L 65.566406 55.130859 C 62.906406 64.820859 57.797266 73.449844 50.947266 80.339844 C 44.097266 87.239844 35.486172 92.389141 25.826172 95.119141 C 15.386172 98.059141 8.1679687 107.58969 8.1679688 118.42969 L 8.1679688 186.3125 L 46.576172 177.33008 C 47.386172 175.45008 48.306172 173.61984 49.326172 171.83984 C 58.916172 155.22984 76.767734 144.91016 95.927734 144.91016 C 115.08773 144.91016 132.92781 155.22984 142.50781 171.83984 C 143.52781 173.61984 144.45781 175.45008 145.25781 177.33008 L 308.33789 177.33008 C 309.12789 175.47008 310.03688 173.66039 311.04688 171.90039 C 320.62687 155.25039 338.4975 144.91016 357.6875 144.91016 C 376.8475 144.91016 394.68758 155.22984 404.26758 171.83984 C 405.28758 173.61984 406.21758 175.45008 407.01758 177.33008 L 449.83789 177.33008 L 450.10742 177.35938 L 453.22656 149.96094 C 453.35656 148.84094 453.44609 147.72914 453.49609 146.61914 C 453.86609 138.85914 452.43664 131.37914 449.55664 124.61914 C 442.70664 108.54914 427.64686 96.520625 409.04688 94.390625 L 338.50781 86.330078 L 300.87695 25.169922 C 291.25695 9.5299218 274.20766 0 255.84766 0 L 134.34766 0 z M 134.34766 24.160156 L 200.02734 24.160156 L 200.02734 24.289062 L 200.02734 86.330078 L 192.99609 86.330078 L 130.9668 86.330078 L 130.9668 24.289062 C 132.0868 24.199063 133.21766 24.160156 134.34766 24.160156 z M 215.02734 24.160156 L 255.84766 24.160156 C 265.73766 24.160156 275.11687 29.400078 280.29688 37.830078 L 310.13672 86.330078 L 277.19727 86.330078 L 215.02734 86.330078 L 215.02734 24.160156 z "
       transform="translate(0,110.39)"
       id="path2" /><path
       style="fill:#cccccc"
       d="m 462.2,299.792 v 0 c 0,6.654 -5.394,12.048 -12.048,12.048 h -38.795 c 0.05,-0.92 0.08,-1.85 0.08,-2.78 0,-7.37 -1.51,-14.65 -4.42,-21.34 l 43.142,0.024 c 6.651,0.003 12.041,5.396 12.041,12.048 z"
       id="path4"
       inkscape:connector-curvature="0" /><path
       style="fill:#cccccc"
       d="m 303.927,309.06 c 0,0.93 0.03,1.87 0.08,2.78 h -154.41 c 0.05,-0.93 0.08,-1.86 0.08,-2.78 0,-7.37 -1.51,-14.65 -4.42,-21.34 h 163.08 c -2.9,6.71 -4.41,13.98 -4.41,21.34 z"
       id="path10"
       inkscape:connector-curvature="0" /><path
       style="fill:#76cdce"
       d="m 115.967,138.39 v 58.33 h -33.47 c 0,0 3.9,-15.83 6.37,-24.79 l 0.95,-3.45 c 0.5,-1.83 1.11,-3.6 1.82,-5.32 4.62,-11.22 13.46,-20.04 24.33,-24.77 z"
       id="path12"
       inkscape:connector-curvature="0" /><path
       style="fill:#666666"
       d="M 95.927734 155.91016 C 80.077734 155.91016 66.247422 164.53008 58.857422 177.33008 C 55.237422 183.61008 53.167969 190.89992 53.167969 198.66992 C 53.167969 199.59992 53.197812 200.52922 53.257812 201.44922 C 54.687813 223.75922 73.237734 241.41992 95.927734 241.41992 C 118.60773 241.41992 137.15789 223.75922 138.58789 201.44922 C 138.64789 200.52922 138.67773 199.59992 138.67773 198.66992 C 138.67773 190.89992 136.60656 183.61008 132.97656 177.33008 C 125.59656 164.53008 111.76773 155.91016 95.927734 155.91016 z M 94.427734 160.27734 L 97.427734 160.27734 L 97.427734 181.20703 C 97.799533 181.23878 98.164403 181.29102 98.529297 181.3457 C 98.668143 181.36646 98.807545 181.38422 98.945312 181.4082 C 99.290897 181.46854 99.632319 181.53882 99.970703 181.61914 C 100.12422 181.65547 100.2758 181.69599 100.42773 181.73633 C 100.76372 181.82579 101.09798 181.91871 101.42578 182.02734 C 101.43144 182.02922 101.4377 182.02937 101.44336 182.03125 C 101.50629 182.05218 101.56629 182.07994 101.62891 182.10156 C 102.28619 182.32853 102.92346 182.59411 103.54297 182.89453 C 103.68873 182.96508 103.83698 183.03102 103.98047 183.10547 C 104.2536 183.24742 104.51867 183.40098 104.7832 183.55664 C 104.95747 183.65905 105.13041 183.76288 105.30078 183.87109 C 105.54764 184.02804 105.79098 184.18869 106.0293 184.35742 C 106.19741 184.47638 106.35973 184.60188 106.52344 184.72656 C 106.75516 184.90312 106.98844 185.07607 107.21094 185.26367 L 122.01367 170.46094 L 124.13477 172.58203 L 109.33398 187.38281 C 109.33667 187.386 109.33911 187.38939 109.3418 187.39258 C 109.50107 187.58171 109.64752 187.78076 109.79883 187.97656 C 109.96071 188.18613 110.12104 188.39638 110.27344 188.61328 C 110.42187 188.82435 110.56194 189.04007 110.70117 189.25781 C 110.82785 189.45618 110.94958 189.65766 111.06836 189.86133 C 111.20535 190.09583 111.3425 190.32908 111.46875 190.57031 C 111.57908 190.78152 111.67745 190.99871 111.7793 191.21484 C 112.03232 191.7505 112.26033 192.29976 112.45898 192.86328 C 112.49605 192.96879 112.53913 193.07132 112.57422 193.17773 C 112.67888 193.49396 112.76669 193.81678 112.85352 194.14062 C 112.89889 194.3105 112.94401 194.48049 112.98438 194.65234 C 113.06027 194.97424 113.12577 195.29855 113.18359 195.62695 C 113.21074 195.78167 113.23279 195.93768 113.25586 196.09375 C 113.30876 196.45048 113.35964 196.80661 113.39062 197.16992 L 134.32031 197.16992 L 134.32031 200.16992 L 113.39062 200.16992 C 113.35964 200.53324 113.30876 200.88936 113.25586 201.24609 C 113.23278 201.40214 113.21075 201.55821 113.18359 201.71289 C 113.12577 202.0413 113.06027 202.3656 112.98438 202.6875 C 112.9444 202.85762 112.89841 203.02518 112.85352 203.19336 C 112.7657 203.5213 112.67641 203.84784 112.57031 204.16797 C 112.56844 204.17363 112.56828 204.17989 112.56641 204.18555 C 112.54548 204.24848 112.51771 204.30848 112.49609 204.37109 C 112.27782 205.00321 112.02263 205.61757 111.73633 206.21484 C 111.65152 206.39214 111.57102 206.57213 111.48047 206.74609 C 111.34525 207.00541 111.19838 207.25626 111.05078 207.50781 C 110.94351 207.69086 110.83437 207.87202 110.7207 208.05078 C 110.56754 208.29142 110.41242 208.5292 110.24805 208.76172 C 110.12225 208.93981 109.98964 209.11201 109.85742 209.28516 C 109.68518 209.51062 109.51671 209.73837 109.33398 209.95508 L 124.13477 224.75586 L 122.01367 226.87695 L 107.21289 212.07617 C 107.21041 212.07826 107.20756 212.07994 107.20508 212.08203 C 107.01089 212.24561 106.80669 212.3956 106.60547 212.55078 C 106.40357 212.70646 106.20284 212.86287 105.99414 213.00977 C 105.7771 213.16261 105.55418 213.30611 105.33008 213.44922 C 105.13843 213.5715 104.94464 213.68977 104.74805 213.80469 C 104.50554 213.94662 104.26338 214.08831 104.01367 214.21875 C 103.841 214.30881 103.66229 214.38825 103.48633 214.47266 C 102.91908 214.74523 102.33714 214.98793 101.73828 215.19922 C 101.627 215.2384 101.51854 215.28333 101.40625 215.32031 C 101.08938 215.4249 100.76591 215.51292 100.44141 215.59961 C 100.28352 215.64169 100.12639 215.68491 99.966797 215.72266 C 99.640572 215.80001 99.31144 215.86699 98.978516 215.92578 C 98.806468 215.95609 98.632711 215.9806 98.458984 216.00586 C 98.120963 216.05511 97.783368 216.10322 97.439453 216.13281 C 97.435556 216.13315 97.431632 216.13443 97.427734 216.13477 L 97.427734 237.0625 L 94.427734 237.0625 L 94.427734 216.13477 C 94.425061 216.13454 94.422595 216.13304 94.419922 216.13281 C 94.06931 216.10281 93.725307 216.05429 93.380859 216.00391 C 93.212483 215.97934 93.043743 215.95704 92.876953 215.92773 C 92.550002 215.87012 92.226717 215.80402 91.90625 215.72852 C 91.731534 215.68747 91.559379 215.63998 91.386719 215.59375 C 91.067524 215.50807 90.749259 215.42136 90.4375 215.31836 C 90.327099 215.28198 90.220749 215.23772 90.111328 215.19922 C 89.504723 214.98524 88.915843 214.73968 88.341797 214.46289 C 88.180574 214.3853 88.017819 214.31085 87.859375 214.22852 C 87.602048 214.09457 87.351239 213.95082 87.101562 213.80469 C 86.903824 213.68912 86.708348 213.57029 86.515625 213.44727 C 86.288503 213.30214 86.063601 213.15513 85.84375 213 C 85.646834 212.86114 85.456474 212.71505 85.265625 212.56836 C 85.058659 212.40923 84.849925 212.25393 84.650391 212.08594 C 84.646808 212.08292 84.642252 212.08114 84.638672 212.07812 L 69.839844 226.87695 L 67.71875 224.75586 L 82.517578 209.95703 C 82.514891 209.95384 82.512451 209.95046 82.509766 209.94727 C 82.341867 209.74779 82.18833 209.53697 82.029297 209.33008 C 81.881016 209.13709 81.732063 208.94528 81.591797 208.74609 C 81.436734 208.52609 81.289575 208.30148 81.144531 208.07422 C 81.022103 207.88219 80.904093 207.68723 80.789062 207.49023 C 80.645856 207.24532 80.504532 207.0003 80.373047 206.74805 C 80.285604 206.58 80.207092 206.40749 80.125 206.23633 C 79.86301 205.69121 79.629309 205.13104 79.423828 204.55664 C 79.374393 204.41804 79.317504 204.28276 79.271484 204.14258 C 79.170949 203.8373 79.087847 203.52526 79.003906 203.21289 C 78.957175 203.03845 78.910585 202.86403 78.869141 202.6875 C 78.794075 202.36877 78.729246 202.04777 78.671875 201.72266 C 78.641814 201.55183 78.616883 201.37952 78.591797 201.20703 C 78.542121 200.86632 78.494572 200.52638 78.464844 200.17969 C 78.464559 200.17636 78.463174 200.17325 78.462891 200.16992 L 57.535156 200.16992 L 57.535156 197.16992 L 78.462891 197.16992 C 78.463174 197.1666 78.464559 197.16348 78.464844 197.16016 C 78.494572 196.81346 78.542121 196.47352 78.591797 196.13281 C 78.616896 195.96031 78.641796 195.78803 78.671875 195.61719 C 78.729246 195.29207 78.794075 194.97108 78.869141 194.65234 C 78.909513 194.48049 78.954613 194.3105 79 194.14062 C 79.087127 193.81533 79.176141 193.49143 79.28125 193.17383 C 79.306066 193.09865 79.335526 193.0259 79.361328 192.95117 C 79.590461 192.28921 79.860457 191.64698 80.164062 191.02344 C 80.229924 190.88797 80.292099 190.75069 80.361328 190.61719 C 80.504408 190.34161 80.657416 190.07346 80.814453 189.80664 C 80.91466 189.63621 81.017286 189.46748 81.123047 189.30078 C 81.280181 189.0533 81.440395 188.80922 81.609375 188.57031 C 81.730125 188.39949 81.857716 188.23463 81.984375 188.06836 C 82.160262 187.83755 82.33267 187.60447 82.519531 187.38281 L 67.71875 172.58203 L 69.839844 170.46094 L 84.640625 185.26172 C 84.858151 185.07831 85.086141 184.90917 85.3125 184.73633 C 85.483097 184.60609 85.652715 184.47557 85.828125 184.35156 C 86.06048 184.18722 86.298575 184.03205 86.539062 183.87891 C 86.719262 183.76423 86.901366 183.6531 87.085938 183.54492 C 87.339541 183.39613 87.593957 183.24948 87.855469 183.11328 C 88.029435 183.0228 88.209407 182.94217 88.386719 182.85742 C 88.946878 182.58928 89.520315 182.34909 90.111328 182.14062 C 90.220134 182.10232 90.325771 182.05769 90.435547 182.02148 C 90.749026 181.91789 91.069628 181.83218 91.390625 181.74609 C 91.561984 181.70023 91.732864 181.65404 91.90625 181.61328 C 92.22873 181.5373 92.553767 181.46998 92.882812 181.41211 C 93.045866 181.38349 93.210427 181.36003 93.375 181.33594 C 93.720067 181.28534 94.064759 181.23717 94.416016 181.20703 C 94.419907 181.2067 94.423842 181.20541 94.427734 181.20508 L 94.427734 160.27734 z "
       id="backWheel"
       transform="translate(0,110.39)"
       inkscape:label="#path18" /><path
       style="fill:#cccccc"
       d="m 42.167,309.06 c 0,0.93 0.03,1.86 0.08,2.78 H 12.06 C 5.399,311.84 0,306.441 0,299.78 v 0 c 0,-6.661 5.399,-12.06 12.06,-12.06 h 34.517 c -2.9,6.7 -4.41,13.97 -4.41,21.34 z"
       id="path22"
       inkscape:connector-curvature="0" /><path
       style="fill:#cccccc"
       d="m 256.236,229.631 h -15.76 c -3.313,0 -6,-2.686 -6,-6 0,-3.314 2.687,-6 6,-6 h 15.76 c 3.313,0 6,2.686 6,6 0,3.314 -2.686,6 -6,6 z"
       id="path24"
       inkscape:connector-curvature="0" /><path
       style="fill:#cccccc"
       d="m 148.017,229.631 h -15.76 c -3.313,0 -6,-2.686 -6,-6 0,-3.314 2.687,-6 6,-6 h 15.76 c 3.313,0 6,2.686 6,6 0,3.314 -2.687,6 -6,6 z"
       id="path26"
       inkscape:connector-curvature="0" /><path
       style="fill:#ffcc00;fill-opacity:1"
       d="m 453.497,257.01 h -12.05 c -12.15,0 -22,-9.85 -22,-22 v 0 h 30.11 c 3.31,7.235 4.81,14.36 3.94,22 z"
       id="frontLight"
       inkscape:connector-curvature="0"
       inkscape:label="#path28" /><path
       style="fill:#96e0de"
       d="m 115.967,138.39 v 49.1 l -24.33,-24.33 c 4.62,-11.22 13.46,-20.04 24.33,-24.77 z"
       id="path34"
       inkscape:connector-curvature="0" /><path
       style="opacity:1;fill:#ff8080;fill-opacity:1;stroke:none;stroke-width:1.91599905;stroke-linecap:round;stroke-linejoin:bevel;stroke-miterlimit:4;stroke-dasharray:none;stroke-opacity:1;paint-order:fill markers stroke"
       d="M 9.1503906 111.67188 C 8.5213686 113.83118 8.1679687 116.09637 8.1679688 118.42969 L 8.1679688 119.25977 L 29.841797 119.25977 C 30.26275 119.25977 30.601562 118.92095 30.601562 118.5 L 30.601562 112.43164 C 30.601563 112.01069 30.26275 111.67188 29.841797 111.67188 L 9.1503906 111.67188 z "
       transform="translate(0,110.39)"
       id="brakeLight"
       inkscape:label="#rect4601" /><path
       style="opacity:1;fill:#ff9955;fill-opacity:1;stroke:none;stroke-width:1.91599905;stroke-linecap:round;stroke-linejoin:bevel;stroke-miterlimit:4;stroke-dasharray:none;stroke-opacity:1;paint-order:fill markers stroke"
       d="m 8.1679688,232.87438 v 7.58984 H 29.841797 c 0.420953,0 0.759765,-0.34077 0.759765,-0.76172 v -6.06836 c 10e-7,-0.42095 -0.338812,-0.75976 -0.759765,-0.75976 z"
       id="indicatorLight"
       inkscape:label="#rect4607"
       inkscape:connector-curvature="0" /></g><g
     id="g38"
     transform="translate(0,-110.39)" /><g
     id="g40"
     transform="translate(0,-110.39)" /><g
     id="g42"
     transform="translate(0,-110.39)" /><g
     id="g44"
     transform="translate(0,-110.39)" /><g
     id="g46"
     transform="translate(0,-110.39)" /><g
     id="g48"
     transform="translate(0,-110.39)" /><g
     id="g50"
     transform="translate(0,-110.39)" /><g
     id="g52"
     transform="translate(0,-110.39)" /><g
     id="g54"
     transform="translate(0,-110.39)" /><g
     id="g56"
     transform="translate(0,-110.39)" /><g
     id="g58"
     transform="translate(0,-110.39)" /><g
     id="g60"
     transform="translate(0,-110.39)" /><g
     id="g62"
     transform="translate(0,-110.39)" /><g
     id="g64"
     transform="translate(0,-110.39)" /><g
     id="g66"
     transform="translate(0,-110.39)" /></svg>