<?xml version="1.0" encoding="UTF-8"?>
<svg width="462.2" height="241.4" version="1.1" viewBox="0 0 462.2 241.41999" xml:space="preserve" xmlns="http://www.w3.org/2000/svg"><g transform="translate(0 -110.4)"><path id="frontWheel" d="m357.7 266.3c-15.85 0-29.68 8.62-37.07 21.42-3.62 6.28-5.689 13.57-5.689 21.34 0 0.93 0.0298 1.859 0.0898 2.779 1.43 22.31 19.98 39.97 42.67 39.97 22.68 0 41.23-17.66 42.66-39.97 0.06-0.92 0.0898-1.849 0.0898-2.779 0-7.77-2.071-15.06-5.701-21.34-7.38-12.8-21.21-21.42-37.05-21.42zm-1.5 4.367h3v20.93c0.3718 0.0317 0.7367 0.084 1.102 0.1387 0.1388 0.0208 0.2782 0.0385 0.416 0.0625 0.3456 0.0603 0.687 0.1306 1.025 0.2109 0.1535 0.0363 0.3051 0.0768 0.457 0.1172 0.336 0.0895 0.6702 0.1824 0.998 0.291 6e-3 2e-3 0.0119 2e-3 0.0176 4e-3 0.0629 0.0209 0.1229 0.0487 0.1856 0.0703 0.6573 0.227 1.295 0.4926 1.914 0.793 0.1458 0.0705 0.294 0.1365 0.4375 0.2109 0.2731 0.142 0.5382 0.2955 0.8027 0.4512 0.1743 0.1024 0.3472 0.2062 0.5176 0.3144 0.2469 0.157 0.4902 0.3176 0.7285 0.4863 0.1681 0.119 0.3304 0.2445 0.4941 0.3691 0.2317 0.1766 0.465 0.3495 0.6875 0.5371l14.8-14.8 2.121 2.121-14.8 14.8c3e-3 3e-3 5e-3 7e-3 8e-3 0.01 0.1593 0.1891 0.3057 0.3882 0.457 0.584 0.1619 0.2096 0.3222 0.4198 0.4746 0.6367 0.1484 0.2111 0.2885 0.4268 0.4277 0.6445 0.1267 0.1984 0.2484 0.3998 0.3672 0.6035 0.137 0.2345 0.2741 0.4678 0.4004 0.709 0.1103 0.2112 0.2087 0.4284 0.3106 0.6445 0.253 0.5357 0.481 1.085 0.6797 1.648 0.0371 0.1055 0.0802 0.208 0.1152 0.3144 0.1047 0.3162 0.1925 0.639 0.2793 0.9629 0.0454 0.1699 0.0905 0.3399 0.1309 0.5117 0.0759 0.3219 0.1414 0.6462 0.1992 0.9746 0.0272 0.1547 0.0492 0.3107 0.0723 0.4668 0.0529 0.3567 0.1038 0.7129 0.1348 1.076h20.93v3h-20.93c-0.031 0.3633-0.0819 0.7194-0.1348 1.076-0.0231 0.156-0.0451 0.3121-0.0723 0.4668-0.0578 0.3284-0.1233 0.6527-0.1992 0.9746-0.04 0.1701-0.086 0.3377-0.1309 0.5059-0.0878 0.3279-0.1771 0.6545-0.2832 0.9746-2e-3 6e-3 -2e-3 0.0119-4e-3 0.0176-0.0209 0.0629-0.0487 0.1229-0.0703 0.1855-0.2183 0.6321-0.4735 1.246-0.7598 1.844-0.0848 0.1773-0.1653 0.3573-0.2559 0.5312-0.1352 0.2593-0.2821 0.5102-0.4297 0.7617-0.1073 0.183-0.2164 0.3642-0.3301 0.543-0.1532 0.2406-0.3083 0.4784-0.4726 0.7109-0.1258 0.1781-0.2584 0.3503-0.3906 0.5234-0.1722 0.2255-0.3407 0.4532-0.5234 0.6699l14.8 14.8-2.121 2.121-14.8-14.8c-2e-3 2e-3 -5e-3 4e-3 -8e-3 6e-3 -0.1942 0.1636-0.3984 0.3136-0.5996 0.4688-0.2019 0.1557-0.4026 0.3121-0.6113 0.459-0.217 0.1528-0.44 0.2963-0.6641 0.4394-0.1916 0.1223-0.3854 0.2406-0.582 0.3555-0.2425 0.1419-0.4847 0.2836-0.7344 0.4141-0.1727 0.0901-0.3514 0.1695-0.5273 0.2539-0.5672 0.2726-1.149 0.5153-1.748 0.7266-0.1113 0.0392-0.2197 0.0841-0.332 0.1211-0.3169 0.1046-0.6403 0.1926-0.9648 0.2793-0.1579 0.0421-0.315 0.0853-0.4746 0.123-0.3262 0.0773-0.6554 0.1443-0.9883 0.2031-0.172 0.0303-0.3458 0.0548-0.5195 0.0801-0.338 0.0492-0.6756 0.0974-1.02 0.127-4e-3 3.4e-4 -8e-3 2e-3 -0.0117 2e-3v20.93h-3v-20.93c-3e-3 -2.3e-4 -5e-3 -2e-3 -8e-3 -2e-3 -0.3506-0.03-0.6946-0.0785-1.039-0.1289-0.1684-0.0246-0.3371-0.0469-0.5039-0.0762-0.327-0.0576-0.6502-0.1237-0.9707-0.1992-0.1747-0.041-0.3469-0.0885-0.5195-0.1348-0.3192-0.0857-0.6375-0.1724-0.9492-0.2754-0.1104-0.0364-0.2168-0.0806-0.3262-0.1191-0.6066-0.214-1.195-0.4595-1.77-0.7363-0.1612-0.0776-0.324-0.152-0.4824-0.2344-0.2573-0.134-0.5081-0.2777-0.7578-0.4238-0.1977-0.1156-0.3932-0.2344-0.5859-0.3574-0.2271-0.1451-0.452-0.2921-0.6719-0.4473-0.1969-0.1389-0.3873-0.285-0.5781-0.4316-0.207-0.1591-0.4157-0.3144-0.6152-0.4824-4e-3 -3e-3 -8e-3 -5e-3 -0.0117-8e-3l-14.8 14.8-2.121-2.121 14.8-14.8c-3e-3 -3e-3 -5e-3 -7e-3 -8e-3 -0.01-0.1679-0.1995-0.3214-0.4103-0.4805-0.6172-0.1483-0.193-0.2972-0.3848-0.4375-0.584-0.1551-0.22-0.3022-0.4446-0.4473-0.6719-0.1224-0.192-0.2404-0.387-0.3555-0.584-0.1432-0.2449-0.2845-0.4899-0.416-0.7422-0.0874-0.168-0.166-0.3406-0.248-0.5117-0.262-0.5451-0.4957-1.105-0.7012-1.68-0.0494-0.1386-0.1063-0.2739-0.1523-0.4141-0.1005-0.3053-0.1836-0.6173-0.2676-0.9297-0.0467-0.1744-0.0933-0.3489-0.1348-0.5254-0.0751-0.3187-0.1399-0.6397-0.1973-0.9648-0.0301-0.1708-0.055-0.3431-0.0801-0.5156-0.0497-0.3407-0.0972-0.6806-0.127-1.027-2.9e-4 -3e-3 -2e-3 -6e-3 -2e-3 -0.01h-20.93v-3h20.93c2.9e-4 -3e-3 2e-3 -6e-3 2e-3 -0.01 0.0297-0.3467 0.0773-0.6866 0.127-1.027 0.0251-0.1725 0.05-0.3448 0.0801-0.5156 0.0574-0.3251 0.1222-0.6461 0.1973-0.9648 0.0404-0.1718 0.0855-0.3418 0.1309-0.5117 0.0871-0.3253 0.1761-0.6492 0.2812-0.9668 0.0248-0.0752 0.0543-0.1479 0.0801-0.2227 0.2291-0.662 0.4991-1.304 0.8027-1.928 0.0659-0.1355 0.128-0.2728 0.1973-0.4062 0.1431-0.2756 0.2961-0.5437 0.4531-0.8106 0.1002-0.1704 0.2028-0.3392 0.3086-0.5059 0.1571-0.2475 0.3174-0.4916 0.4863-0.7305 0.1208-0.1708 0.2483-0.3357 0.375-0.502 0.1759-0.2308 0.3483-0.4639 0.5352-0.6856l-14.8-14.8 2.121-2.121 14.8 14.8c0.2175-0.1834 0.4455-0.3526 0.6719-0.5254 0.1706-0.1302 0.3402-0.2608 0.5156-0.3848 0.2324-0.1643 0.4704-0.3195 0.7109-0.4726 0.1802-0.1147 0.3623-0.2258 0.5469-0.334 0.2536-0.1488 0.508-0.2954 0.7695-0.4316 0.174-0.0905 0.3539-0.1711 0.5312-0.2559 0.5602-0.2681 1.134-0.5083 1.725-0.7168 0.1088-0.0383 0.2144-0.0829 0.3242-0.1191 0.3135-0.1036 0.6341-0.1893 0.9551-0.2754 0.1714-0.0459 0.3422-0.0921 0.5156-0.1328 0.3225-0.076 0.6475-0.1433 0.9766-0.2012 0.1631-0.0286 0.3276-0.0521 0.4922-0.0762 0.3451-0.0506 0.6898-0.0988 1.041-0.1289 4e-3 -3.3e-4 8e-3 -2e-3 0.0117-2e-3z" fill="#666"/><g id="frontWindow"><path d="m310.1 196.7h-95.11v-62.17h40.82c9.89 0 19.27 5.24 24.45 13.67z" fill="#76cdce"/><path d="m310.1 196.7h-32.94l-62.17-62.17h40.82c9.89 0 19.27 5.24 24.45 13.67z" fill="#96e0de"/></g><g id="backWindow"><path d="m200 134.6v62.17h-69.06v-62.04c1.12-0.09 2.25-0.13 3.38-0.13z" fill="#76cdce"/><polygon points="193 196.7 131 134.7 200 134.7 200 196.7" fill="#96e0de"/></g><path transform="translate(0 110.4)" d="m134.3 0c-31.66 0-59.43 21.15-67.83 51.68l-0.9512 3.451c-2.66 9.69-7.769 18.32-14.62 25.21-6.85 6.9-15.46 12.05-25.12 14.78-10.44 2.94-17.66 12.47-17.66 23.31v67.88l38.41-8.982c0.81-1.88 1.73-3.71 2.75-5.49 9.59-16.61 27.44-26.93 46.6-26.93 19.16 0 37 10.32 46.58 26.93 1.02 1.78 1.95 3.61 2.75 5.49h163.1c0.79-1.86 1.699-3.67 2.709-5.43 9.58-16.65 27.45-26.99 46.64-26.99 19.16 0 37 10.32 46.58 26.93 1.02 1.78 1.95 3.61 2.75 5.49h42.82l0.2695 0.0293 3.119-27.4c0.13-1.12 0.2195-2.232 0.2695-3.342 0.37-7.76-1.059-15.24-3.939-22-6.85-16.07-21.91-28.1-40.51-30.23l-70.54-8.061-37.63-61.16c-9.62-15.64-26.67-25.17-45.03-25.17h-121.5zm0 24.16h65.68v0.1289 62.04h-7.031-62.03v-62.04c1.12-0.09 2.251-0.1289 3.381-0.1289zm80.68 0h40.82c9.89 0 19.27 5.24 24.45 13.67l29.84 48.5h-32.94-62.17v-62.17z" fill="#008db3"/><path d="m462.2 299.8c0 6.654-5.394 12.05-12.05 12.05h-38.8c0.05-0.92 0.08-1.85 0.08-2.78 0-7.37-1.51-14.65-4.42-21.34l43.14 0.024c6.651 3e-3 12.04 5.396 12.04 12.05z" fill="#ccc"/><path d="m303.9 309.1c0 0.93 0.03 1.87 0.08 2.78h-154.4c0.05-0.93 0.08-1.86 0.08-2.78 0-7.37-1.51-14.65-4.42-21.34h163.1c-2.9 6.71-4.41 13.98-4.41 21.34z" fill="#ccc"/><path d="m116 138.4v58.33h-33.47s3.9-15.83 6.37-24.79l0.95-3.45c0.5-1.83 1.11-3.6 1.82-5.32 4.62-11.22 13.46-20.04 24.33-24.77z" fill="#76cdce"/><path id="backWheel" transform="translate(0 110.4)" d="m95.93 155.9c-15.85 0-29.68 8.62-37.07 21.42-3.62 6.28-5.689 13.57-5.689 21.34 0 0.93 0.02984 1.859 0.08984 2.779 1.43 22.31 19.98 39.97 42.67 39.97 22.68 0 41.23-17.66 42.66-39.97 0.06-0.92 0.08984-1.849 0.08984-2.779 0-7.77-2.071-15.06-5.701-21.34-7.38-12.8-21.21-21.42-37.05-21.42zm-1.5 4.367h3v20.93c0.3718 0.03175 0.7367 0.08399 1.102 0.1387 0.1388 0.02076 0.2782 0.03852 0.416 0.0625 0.3456 0.06034 0.687 0.1306 1.025 0.2109 0.1535 0.03633 0.3051 0.07685 0.457 0.1172 0.336 0.08946 0.6702 0.1824 0.998 0.291 0.00566 0.00188 0.01192 0.00203 0.01758 0.00391 0.06293 0.02093 0.1229 0.04869 0.1856 0.07031 0.6573 0.227 1.295 0.4926 1.914 0.793 0.1458 0.07055 0.294 0.1365 0.4375 0.2109 0.2731 0.142 0.5382 0.2955 0.8027 0.4512 0.1743 0.1024 0.3472 0.2062 0.5176 0.3144 0.2469 0.157 0.4902 0.3176 0.7285 0.4863 0.1681 0.119 0.3304 0.2445 0.4941 0.3691 0.2317 0.1766 0.465 0.3495 0.6875 0.5371l14.8-14.8 2.121 2.121-14.8 14.8c0.00269 0.00319 0.00513 0.00658 0.00782 0.00977 0.1593 0.1891 0.3057 0.3882 0.457 0.584 0.1619 0.2096 0.3222 0.4198 0.4746 0.6367 0.1484 0.2111 0.2885 0.4268 0.4277 0.6445 0.1267 0.1984 0.2484 0.3998 0.3672 0.6035 0.137 0.2345 0.2741 0.4678 0.4004 0.709 0.1103 0.2112 0.2087 0.4284 0.3106 0.6445 0.253 0.5357 0.481 1.085 0.6797 1.648 0.03707 0.1055 0.08015 0.208 0.1152 0.3144 0.1047 0.3162 0.1925 0.639 0.2793 0.9629 0.04537 0.1699 0.09049 0.3399 0.1309 0.5117 0.07589 0.3219 0.1414 0.6462 0.1992 0.9746 0.02715 0.1547 0.0492 0.3107 0.07227 0.4668 0.0529 0.3567 0.1038 0.7129 0.1348 1.076h20.93v3h-20.93c-0.03098 0.3633-0.08186 0.7194-0.1348 1.076-0.02308 0.156-0.04511 0.3121-0.07227 0.4668-0.05782 0.3284-0.1233 0.6527-0.1992 0.9746-0.03998 0.1701-0.08597 0.3377-0.1309 0.5059-0.08782 0.3279-0.1771 0.6545-0.2832 0.9746-0.00187 0.00566-0.00203 0.01192-0.0039 0.01758-0.02093 0.06293-0.0487 0.1229-0.07032 0.1855-0.2183 0.6321-0.4735 1.246-0.7598 1.844-0.08481 0.1773-0.1653 0.3573-0.2559 0.5312-0.1352 0.2593-0.2821 0.5102-0.4297 0.7617-0.1073 0.183-0.2164 0.3642-0.3301 0.543-0.1532 0.2406-0.3083 0.4784-0.4726 0.7109-0.1258 0.1781-0.2584 0.3503-0.3906 0.5234-0.1722 0.2255-0.3407 0.4532-0.5234 0.6699l14.8 14.8-2.121 2.121-14.8-14.8c-0.00248 0.00209-0.00533 0.00377-0.00781 0.00586-0.1942 0.1636-0.3984 0.3136-0.5996 0.4688-0.2019 0.1557-0.4026 0.3121-0.6113 0.459-0.217 0.1528-0.44 0.2963-0.6641 0.4394-0.1916 0.1223-0.3854 0.2406-0.582 0.3555-0.2425 0.1419-0.4847 0.2836-0.7344 0.4141-0.1727 0.09006-0.3514 0.1695-0.5273 0.2539-0.5672 0.2726-1.149 0.5153-1.748 0.7266-0.1113 0.03918-0.2197 0.08411-0.332 0.1211-0.3169 0.1046-0.6403 0.1926-0.9648 0.2793-0.1579 0.04208-0.315 0.0853-0.4746 0.123-0.3262 0.07735-0.6554 0.1443-0.9883 0.2031-0.172 0.03031-0.3458 0.05482-0.5195 0.08008-0.338 0.04925-0.6756 0.09736-1.02 0.127-0.003897 3.4e-4 -0.007821 0.00162-0.01172 0.00196v20.93h-3v-20.93c-0.002673-2.3e-4 -0.005139-0.00173-0.007812-0.00196-0.3506-0.03-0.6946-0.07852-1.039-0.1289-0.1684-0.02457-0.3371-0.04687-0.5039-0.07618-0.327-0.05761-0.6502-0.1237-0.9707-0.1992-0.1747-0.04105-0.3469-0.08854-0.5195-0.1348-0.3192-0.08568-0.6375-0.1724-0.9492-0.2754-0.1104-0.03638-0.2168-0.08064-0.3262-0.1191-0.6066-0.214-1.195-0.4595-1.77-0.7363-0.1612-0.07759-0.324-0.152-0.4824-0.2344-0.2573-0.134-0.5081-0.2777-0.7578-0.4238-0.1977-0.1156-0.3932-0.2344-0.5859-0.3574-0.2271-0.1451-0.452-0.2921-0.6719-0.4473-0.1969-0.1389-0.3873-0.285-0.5781-0.4316-0.207-0.1591-0.4157-0.3144-0.6152-0.4824-0.003583-0.00302-0.008139-0.0048-0.01172-0.00782l-14.8 14.8-2.121-2.121 14.8-14.8c-0.002687-0.00319-0.005127-0.00657-0.007812-0.00976-0.1679-0.1995-0.3214-0.4103-0.4805-0.6172-0.1483-0.193-0.2972-0.3848-0.4375-0.584-0.1551-0.22-0.3022-0.4446-0.4473-0.6719-0.1224-0.192-0.2404-0.387-0.3555-0.584-0.1432-0.2449-0.2845-0.4899-0.416-0.7422-0.08744-0.168-0.166-0.3406-0.248-0.5117-0.262-0.5451-0.4957-1.105-0.7012-1.68-0.04944-0.1386-0.1063-0.2739-0.1523-0.4141-0.1005-0.3053-0.1836-0.6173-0.2676-0.9297-0.04673-0.1744-0.09332-0.3489-0.1348-0.5254-0.07507-0.3187-0.1399-0.6397-0.1973-0.9648-0.03006-0.1708-0.05499-0.3431-0.08008-0.5156-0.04968-0.3407-0.09722-0.6806-0.127-1.027-2.85e-4 -0.00333-0.00167-0.00644-0.001953-0.00977h-20.93v-3h20.93c2.83e-4 -0.00332 0.001668-0.00644 0.001953-0.00976 0.02973-0.3467 0.07728-0.6866 0.127-1.027 0.0251-0.1725 0.05-0.3448 0.08008-0.5156 0.05737-0.3251 0.1222-0.6461 0.1973-0.9648 0.04037-0.1718 0.08547-0.3418 0.1309-0.5117 0.08713-0.3253 0.1761-0.6492 0.2812-0.9668 0.02482-0.07518 0.05428-0.1479 0.08008-0.2227 0.2291-0.662 0.4991-1.304 0.8027-1.928 0.06586-0.1355 0.128-0.2728 0.1973-0.4062 0.1431-0.2756 0.2961-0.5437 0.4531-0.8106 0.1002-0.1704 0.2028-0.3392 0.3086-0.5059 0.1571-0.2475 0.3173-0.4916 0.4863-0.7305 0.1208-0.1708 0.2483-0.3357 0.375-0.502 0.1759-0.2308 0.3483-0.4639 0.5352-0.6856l-14.8-14.8 2.121-2.121 14.8 14.8c0.2175-0.1834 0.4455-0.3526 0.6719-0.5254 0.1706-0.1302 0.3402-0.2608 0.5156-0.3848 0.2324-0.1643 0.4704-0.3195 0.7109-0.4726 0.1802-0.1147 0.3623-0.2258 0.5469-0.334 0.2536-0.1488 0.508-0.2954 0.7695-0.4316 0.174-0.09048 0.3539-0.1711 0.5312-0.2559 0.5602-0.2681 1.134-0.5083 1.725-0.7168 0.1088-0.0383 0.2144-0.08293 0.3242-0.1191 0.3135-0.1036 0.6341-0.1893 0.9551-0.2754 0.1714-0.04586 0.3422-0.09205 0.5156-0.1328 0.3225-0.07598 0.6475-0.1433 0.9766-0.2012 0.1631-0.02862 0.3276-0.05208 0.4922-0.07617 0.3451-0.0506 0.6898-0.09877 1.041-0.1289 0.003891-3.3e-4 0.007826-0.00162 0.01172-0.00195v-20.93z" fill="#666"/><path d="m42.17 309.1c0 0.93 0.03 1.86 0.08 2.78h-30.19c-6.661 0-12.06-5.399-12.06-12.06s5.399-12.06 12.06-12.06h34.52c-2.9 6.7-4.41 13.97-4.41 21.34z" fill="#ccc"/><path d="m256.2 229.6h-15.76c-3.313 0-6-2.686-6-6s2.687-6 6-6h15.76c3.313 0 6 2.686 6 6s-2.686 6-6 6z" fill="#ccc"/><path d="m148 229.6h-15.76c-3.313 0-6-2.686-6-6s2.687-6 6-6h15.76c3.313 0 6 2.686 6 6s-2.687 6-6 6z" fill="#ccc"/><path id="frontLight" d="m453.5 257h-12.05c-12.15 0-22-9.85-22-22h30.11c3.31 7.235 4.81 14.36 3.94 22z" fill="#afc6e9"/><path d="m116 138.4v49.1l-24.33-24.33c4.62-11.22 13.46-20.04 24.33-24.77z" fill="#96e0de"/><path id="brakeLight" transform="translate(0 110.4)" d="m9.15 111.7c-0.629 2.159-0.9824 4.424-0.9824 6.758v0.8301h21.67c0.421 0 0.7598-0.3388 0.7598-0.7598v-6.068c1e-6 -0.421-0.3388-0.7598-0.7598-0.7598h-20.69z" fill="#ff8080" style="paint-order:fill markers stroke"/><path id="indicatorLight" d="m8.168 232.9v7.59h21.67c0.421 0 0.7598-0.3408 0.7598-0.7617v-6.068c1e-6 -0.421-0.3388-0.7598-0.7598-0.7598z" fill="#f95" style="paint-order:fill markers stroke"/></g></svg>
